<?xml version="1.0" encoding="UTF-8" standalone="no"?>
<!DOCTYPE svg PUBLIC "-//W3C//DTD SVG 1.1//EN"
 "http://www.w3.org/Graphics/SVG/1.1/DTD/svg11.dtd">
<!-- Generated by graphviz version 2.50.0 (0)
 -->
<!-- Title: Complex transformer Pages: 1 -->
<svg width="559pt" height="332pt"
 viewBox="0.00 0.00 559.37 332.00" xmlns="http://www.w3.org/2000/svg" xmlns:xlink="http://www.w3.org/1999/xlink">
<g id="graph0" class="graph" transform="scale(1 1) rotate(0) translate(4 328)">
<title>Complex transformer</title>
<polygon fill="white" stroke="transparent" points="-4,4 -4,-328 555.37,-328 555.37,4 -4,4"/>
<!-- 0ByNameFeatureSelector -->
<g id="node1" class="node">
<title>0ByNameFeatureSelector</title>
<ellipse fill="none" stroke="black" cx="154.69" cy="-306" rx="154.87" ry="18"/>
<text text-anchor="middle" x="154.69" y="-302.3" font-family="Times,serif" font-size="14.00">ByNameFeatureSelector : [SensorMeas]</text>
</g>
<!-- 3RollingStatistics -->
<g id="node4" class="node">
<title>3RollingStatistics</title>
<ellipse fill="none" stroke="black" cx="154.69" cy="-234" rx="68.79" ry="18"/>
<text text-anchor="middle" x="154.69" y="-230.3" font-family="Times,serif" font-size="14.00">RollingStatistics</text>
</g>
<!-- 0ByNameFeatureSelector&#45;&gt;3RollingStatistics -->
<g id="edge1" class="edge">
<title>0ByNameFeatureSelector&#45;&gt;3RollingStatistics</title>
<path fill="none" stroke="black" d="M154.69,-287.7C154.69,-279.98 154.69,-270.71 154.69,-262.11"/>
<polygon fill="black" stroke="black" points="158.19,-262.1 154.69,-252.1 151.19,-262.1 158.19,-262.1"/>
</g>
<!-- 1ForwardFillImputer -->
<g id="node2" class="node">
<title>1ForwardFillImputer</title>
<ellipse fill="none" stroke="black" cx="375.69" cy="-162" rx="81.79" ry="18"/>
<text text-anchor="middle" x="375.69" y="-158.3" font-family="Times,serif" font-size="14.00">ForwardFillImputer</text>
</g>
<!-- 7raw_scaled -->
<g id="node8" class="node">
<title>7raw_scaled</title>
<ellipse fill="none" stroke="black" cx="361.69" cy="-90" rx="50.09" ry="18"/>
<text text-anchor="middle" x="361.69" y="-86.3" font-family="Times,serif" font-size="14.00">raw_scaled</text>
</g>
<!-- 1ForwardFillImputer&#45;&gt;7raw_scaled -->
<g id="edge5" class="edge">
<title>1ForwardFillImputer&#45;&gt;7raw_scaled</title>
<path fill="none" stroke="black" d="M372.23,-143.7C370.68,-135.98 368.83,-126.71 367.11,-118.11"/>
<polygon fill="black" stroke="black" points="370.5,-117.22 365.11,-108.1 363.64,-118.6 370.5,-117.22"/>
</g>
<!-- 2MeanImputer -->
<g id="node3" class="node">
<title>2MeanImputer</title>
<ellipse fill="none" stroke="black" cx="195.69" cy="-162" rx="59.29" ry="18"/>
<text text-anchor="middle" x="195.69" y="-158.3" font-family="Times,serif" font-size="14.00">MeanImputer</text>
</g>
<!-- 6transformed_scaled -->
<g id="node7" class="node">
<title>6transformed_scaled</title>
<ellipse fill="none" stroke="black" cx="200.69" cy="-90" rx="79.89" ry="18"/>
<text text-anchor="middle" x="200.69" y="-86.3" font-family="Times,serif" font-size="14.00">transformed_scaled</text>
</g>
<!-- 2MeanImputer&#45;&gt;6transformed_scaled -->
<g id="edge4" class="edge">
<title>2MeanImputer&#45;&gt;6transformed_scaled</title>
<path fill="none" stroke="black" d="M196.92,-143.7C197.47,-135.98 198.14,-126.71 198.75,-118.11"/>
<polygon fill="black" stroke="black" points="202.24,-118.33 199.46,-108.1 195.26,-117.83 202.24,-118.33"/>
</g>
<!-- 3RollingStatistics&#45;&gt;2MeanImputer -->
<g id="edge7" class="edge">
<title>3RollingStatistics&#45;&gt;2MeanImputer</title>
<path fill="none" stroke="black" d="M164.61,-216.05C169.45,-207.8 175.36,-197.7 180.73,-188.54"/>
<polygon fill="black" stroke="black" points="183.82,-190.19 185.85,-179.79 177.78,-186.65 183.82,-190.19"/>
</g>
<!-- 4ByNameFeatureSelector -->
<g id="node5" class="node">
<title>4ByNameFeatureSelector</title>
<ellipse fill="none" stroke="black" cx="396.69" cy="-234" rx="154.87" ry="18"/>
<text text-anchor="middle" x="396.69" y="-230.3" font-family="Times,serif" font-size="14.00">ByNameFeatureSelector : [SensorMeas]</text>
</g>
<!-- 4ByNameFeatureSelector&#45;&gt;1ForwardFillImputer -->
<g id="edge6" class="edge">
<title>4ByNameFeatureSelector&#45;&gt;1ForwardFillImputer</title>
<path fill="none" stroke="black" d="M391.5,-215.7C389.16,-207.9 386.34,-198.51 383.74,-189.83"/>
<polygon fill="black" stroke="black" points="387.04,-188.68 380.82,-180.1 380.34,-190.69 387.04,-188.68"/>
</g>
<!-- 5Concatenate -->
<g id="node6" class="node">
<title>5Concatenate</title>
<ellipse fill="none" stroke="black" cx="274.69" cy="-18" rx="54.69" ry="18"/>
<text text-anchor="middle" x="274.69" y="-14.3" font-family="Times,serif" font-size="14.00">Concatenate</text>
</g>
<!-- 6transformed_scaled&#45;&gt;5Concatenate -->
<g id="edge3" class="edge">
<title>6transformed_scaled&#45;&gt;5Concatenate</title>
<path fill="none" stroke="black" d="M218.22,-72.41C227.78,-63.37 239.77,-52.03 250.23,-42.13"/>
<polygon fill="black" stroke="black" points="252.67,-44.64 257.53,-35.23 247.86,-39.56 252.67,-44.64"/>
</g>
<!-- 7raw_scaled&#45;&gt;5Concatenate -->
<g id="edge2" class="edge">
<title>7raw_scaled&#45;&gt;5Concatenate</title>
<path fill="none" stroke="black" d="M341.94,-73.12C330.26,-63.72 315.29,-51.67 302.43,-41.33"/>
<polygon fill="black" stroke="black" points="304.34,-38.36 294.35,-34.82 299.95,-43.82 304.34,-38.36"/>
</g>
</g>
</svg>
